<svg width="512" height="512" viewBox="0 0 512 512" fill="none" xmlns="http://www.w3.org/2000/svg">
<path d="M137 105C139.336 106.898 139.336 106.898 141.375 109.375C142.063 110.187 142.752 110.999 143.461 111.836C145 114 145 114 145 116C145.66 116 146.32 116 147 116C148.543 117.793 148.543 117.793 150.188 120.187C150.738 120.965 151.288 121.742 151.855 122.543C153 125 153 125 153.098 127.395C151.419 131.38 148.467 133.693 145.25 136.5C144.004 137.614 142.76 138.728 141.516 139.844C140.915 140.379 140.314 140.914 139.694 141.465C135.996 144.815 132.558 148.393 129.25 152.125C128.657 152.788 128.064 153.45 127.453 154.133C125.801 156.042 125.801 156.042 125 159C124.402 159.577 123.804 160.155 123.188 160.75C120.987 163.013 119.573 165.312 118.07 168.074C116.932 170.123 115.699 172.088 114.438 174.062C112.893 176.498 111.59 178.834 110.312 181.437C109 184 109 184 107 185C106.622 186.321 106.303 187.659 106 189C105.351 190.846 104.7 192.691 104.032 194.531C94.4611 220.915 87.9214 248.77 93 277C93.2024 278.146 93.4048 279.292 93.6133 280.473C95.2999 289.132 97.3623 297.571 100 306C100.335 307.096 100.67 308.191 101.016 309.32C105.524 323.005 112.61 337.266 121 349C121.66 349.33 122.32 349.66 123 350C123 350.66 123 351.32 123 352C123.66 352.33 124.32 352.66 125 353C126.016 354.263 126.991 355.559 127.938 356.875C129.438 358.955 130.844 360.85 132.691 362.633C134 364 134 364 134 366C134.66 366 135.32 366 136 366C137.354 367.65 138.687 369.317 140 371C140.66 371.33 141.32 371.66 142 372C142 372.66 142 373.32 142 374C142.843 374.371 142.843 374.371 143.703 374.75C146.39 376.212 148.441 377.992 150.75 380C163.833 390.788 178.626 398.026 194 405C193.34 403.886 192.68 402.772 192 401.625C190 398.25 190 398.25 190 396C189.34 395.67 188.68 395.34 188 395C187.113 393.363 187.113 393.363 186.312 391.312C186.041 390.649 185.769 389.985 185.488 389.301C184.777 385.948 184.776 384.257 186 381C188.805 378.738 191.902 377.212 195.125 375.625C196.39 374.95 196.39 374.95 197.68 374.262C202.534 371.782 206.436 370.043 212 371C216.671 374.062 218.804 380.018 221.25 384.875C222.226 386.777 223.204 388.678 224.184 390.578C224.901 391.969 224.901 391.969 225.632 393.389C227.445 396.849 229.352 400.246 231.312 403.625C234.135 408.493 236.896 413.382 239.543 418.348C240.558 420.196 241.628 422.015 242.738 423.809C245.787 428.862 248.245 433.075 246.969 439.082C244.931 443.117 240.964 444.268 237 446C235.144 446.913 233.301 447.85 231.457 448.788C226.547 451.279 221.606 453.707 216.656 456.117C215.949 456.464 215.242 456.811 214.514 457.169C213.176 457.825 211.835 458.477 210.492 459.122C207.255 460.715 204.326 462.42 201.422 464.566C198.376 466.812 195.342 468.343 191.812 469.75C190.306 470.361 190.306 470.361 188.77 470.984C186 472 186 472 183.699 472.516C182.858 472.755 182.858 472.755 182 473C181.67 473.66 181.34 474.32 181 475C179.191 474.789 179.191 474.789 177 474C175.402 471.961 175.402 471.961 173.938 469.375C173.424 468.474 172.911 467.573 172.383 466.645C171.247 464.472 170.235 462.33 169.312 460.062C168.256 457.025 168.256 457.025 166.312 455.438C165 454 165 454 164.562 451.062C165.109 447.239 166.114 446.49 169 444C170.88 442.855 172.8 441.772 174.75 440.75C175.735 440.229 176.72 439.708 177.734 439.172C178.482 438.785 179.23 438.398 180 438C176.498 435.172 173.377 434.094 169 433C169 432.34 169 431.68 169 431C167.948 430.753 166.896 430.505 165.812 430.25C162.161 429.227 159.909 427.438 157 425C154.818 424.222 154.818 424.222 153 424C153 423.34 153 422.68 153 422C152.278 421.728 151.556 421.456 150.812 421.176C143.959 418.31 138.038 414.47 133 409C132.072 408.278 131.144 407.556 130.188 406.812C129.466 406.214 128.744 405.616 128 405C128 404.34 128 403.68 128 403C127.464 402.773 126.927 402.546 126.375 402.312C123.175 400.544 120.71 398.463 118 396C118 395.34 118 394.68 118 394C117.34 394 116.68 394 116 394C114.484 392.496 114.484 392.496 112.75 390.438C112.133 389.712 111.515 388.986 110.879 388.238C110.259 387.5 109.639 386.761 109 386C107.897 384.707 106.793 383.415 105.688 382.125C105.217 381.571 104.746 381.016 104.262 380.445C103.222 379.254 102.118 378.118 101 377C100.856 376.319 100.711 375.639 100.562 374.938C100.377 374.298 100.191 373.659 100 373C99.01 372.67 98.02 372.34 97 372C93 366.629 93 366.629 93 364C92.34 363.67 91.68 363.34 91 363C88 358.5 88 358.5 88 356C87.34 355.67 86.68 355.34 86 355C81.4067 347.999 78.3726 340.262 75.375 332.492C74.2987 329.759 73.1508 327.141 71.875 324.5C68.6365 317.383 66 308.813 66 301C65.34 300.67 64.68 300.34 64 300C63.6211 298.109 63.6211 298.109 63.4375 295.75C63.1642 292.425 62.6596 289.269 62 286C61.4522 282.255 60.9586 278.504 60.4805 274.75C60.2132 272.664 59.9348 270.579 59.6133 268.5C53.9238 227.122 70.5679 181.009 93.0195 147.023C94.287 145.089 95.4994 143.116 96.6367 141.102C97.0866 140.408 97.5365 139.715 98 139C98.66 139 99.32 139 100 139C100.268 138.425 100.536 137.85 100.812 137.258C105.24 128.84 112.668 122.151 119.312 115.5C120.114 114.698 120.915 113.896 121.74 113.07C130.708 104.188 130.708 104.188 137 105Z" fill="#21C25E"/>
<path d="M335 39C336.434 40.3555 336.434 40.3555 337.437 42.1875C337.831 42.8991 338.224 43.6107 338.629 44.3438C339.081 45.2203 339.534 46.0969 340 47C340.942 48.7171 340.942 48.7171 341.902 50.4688C342.562 51.7071 343.22 52.9467 343.875 54.1875C344.198 54.7814 344.521 55.3752 344.853 55.9871C346.175 58.5793 346.984 60.7433 347.168 63.6563C345.307 67.3915 342.096 68.5548 338.437 70.3125C337.727 70.6715 337.016 71.0305 336.283 71.4004C334.53 72.2829 332.766 73.1436 331 74C331.958 74.4615 332.916 74.923 333.902 75.3985C353.562 84.9788 371.868 96.0394 387.887 111.063C390.05 113.102 390.05 113.102 392.77 115.125C393.506 115.744 394.242 116.363 395 117C395 117.66 395 118.32 395 119C395.99 119.33 396.98 119.66 398 120C399.875 122.012 399.875 122.012 402 124.688C403.191 126.186 403.191 126.186 404.406 127.715C404.828 128.251 405.249 128.787 405.684 129.339C407.011 131.014 408.362 132.666 409.719 134.316C415.872 141.867 421.174 149.647 425.95 158.135C426.637 159.355 427.332 160.572 428.034 161.783C438.743 180.254 444.792 200.153 449 221C449.179 221.886 449.359 222.772 449.543 223.686C451.682 234.773 452.262 245.717 452.312 257C452.321 258.789 452.321 258.789 452.33 260.614C452.264 268.579 451.369 276.163 450 284C449.77 285.536 449.544 287.072 449.324 288.609C447.213 302.605 443.662 315.994 438 329C437.509 330.187 437.018 331.374 436.512 332.598C433.46 339.886 430.11 346.916 426.25 353.813C425.873 354.488 425.497 355.164 425.109 355.86C423.336 358.957 421.615 361.574 419 364C418.021 365.697 417.044 367.396 416.094 369.109C412.231 375.786 407.297 382.377 401.25 387.188C398.934 388.788 398.934 388.788 398.078 390.91C396.848 393.295 395.545 394.524 393.5 396.25C392.799 396.844 392.097 397.439 391.375 398.051C387.283 401.409 383.156 404.721 379 408C375.28 406.743 373.223 405.534 370.812 402.438C368.77 399.783 368.77 399.783 366 398C364.981 396.345 363.982 394.677 363 393C362.34 392.34 361.68 391.68 361 391C359 388 359 388 359.078 385.094C360.216 381.274 361.686 380.002 364.75 377.5C369.027 373.895 369.027 373.895 372.75 369.75C375 367 375 367 377.828 364.719C381.033 362.092 383.535 359.066 386 355.75C386.4 355.228 386.799 354.706 387.211 354.168C393.155 346.311 398.054 338.325 402.187 329.375C402.825 328.022 402.825 328.022 403.475 326.641C420.641 290.011 424.492 251.363 414.062 212.25C413.822 211.345 413.581 210.441 413.333 209.508C411.963 204.632 410.289 200.229 407.921 195.751C406.725 193.476 405.757 191.139 404.812 188.75C404.489 187.941 404.165 187.131 403.832 186.297C403 184 403 184 402.512 181.766C402.343 181.183 402.174 180.6 402 180C401.34 179.67 400.68 179.34 400 179C398.711 177.004 398.711 177.004 397.375 174.563C396.929 173.759 396.483 172.956 396.023 172.129C395 170 395 170 395 168C394.34 168 393.68 168 393 168C391.773 166.418 391.773 166.418 390.375 164.188C383.099 152.753 383.099 152.753 373.574 143.25C371.195 141.361 369.147 139.147 367 137C352.933 123.515 335.75 114.673 318 107C318.417 107.718 318.417 107.718 318.842 108.449C320.102 110.643 321.332 112.852 322.562 115.063C323.219 116.191 323.219 116.191 323.889 117.342C325.948 121.088 326.981 123.504 327.145 127.844C326 131 326 131 323.383 132.996C322.308 133.472 321.233 133.947 320.125 134.438C318.52 135.178 318.52 135.178 316.883 135.934C314 137 314 137 311 137C311 137.66 311 138.32 311 139C310.01 139 309.02 139 308 139C308 139.66 308 140.32 308 141C304.967 141.981 303.259 142.076 300.176 141.172C295.46 137.947 293.747 133.625 291.312 128.563C290.374 126.667 289.433 124.772 288.488 122.879C288.081 122.039 287.674 121.199 287.255 120.334C286.015 118.027 284.585 116.079 283 114C281.688 111.492 280.422 108.983 279.187 106.438C276.795 101.573 274.367 96.7488 271.75 92C271.278 91.1402 270.806 90.2804 270.32 89.3946C269.467 87.8469 268.608 86.3024 267.742 84.7617C265.578 80.743 264.15 77.6776 265 73C268.504 68.3929 273.788 66.4309 278.875 64C286.819 60.123 294.637 56.0868 302.375 51.8125C305.914 49.871 309.456 47.9336 313 46C313.798 45.564 314.596 45.128 315.419 44.6787C317.603 43.4964 319.799 42.338 322 41.1875C322.628 40.8438 323.257 40.5 323.904 40.1458C327.97 38.059 330.629 37.5534 335 39Z" fill="#21C25E"/>
<path d="M199.683 176.58C201.044 176.573 202.405 176.564 203.766 176.554C207.44 176.532 211.114 176.529 214.787 176.531C217.866 176.531 220.945 176.523 224.023 176.514C231.294 176.495 238.564 176.492 245.834 176.499C253.307 176.506 260.779 176.483 268.252 176.446C274.692 176.415 281.132 176.404 287.572 176.408C291.408 176.41 295.243 176.404 299.079 176.38C302.69 176.357 306.3 176.359 309.911 176.38C311.848 176.385 313.785 176.365 315.722 176.345C327.032 176.452 337.807 179.88 346 188C353.485 197.326 356.958 207.039 356 219C353.776 230.609 347.534 239.127 338 246C328.187 252.13 317.392 252.36 306.125 251.875C305.024 251.852 303.923 251.829 302.789 251.805C294.871 251.497 294.871 251.497 290.832 249.191C288.138 245.969 287.323 243.15 287 239C287.921 234.95 289.858 232.666 293 230C296.145 228.952 298.466 228.845 301.77 228.789C303.474 228.747 303.474 228.747 305.213 228.703C307.601 228.651 309.989 228.607 312.377 228.57C319.765 228.37 325.05 228.105 330.375 222.5C332.272 220.078 332.272 220.078 332 217C332.66 217 333.32 217 334 217C333.045 210.585 331.694 206.576 327 202C326.34 202 325.68 202 325 202C325 201.34 325 200.68 325 200C311.398 198.64 297.756 198.817 284.102 198.797C282.183 198.793 282.183 198.793 280.226 198.788C274.165 198.775 268.103 198.765 262.042 198.761C255.083 198.757 248.124 198.739 241.165 198.71C235.1 198.686 229.036 198.678 222.971 198.676C220.405 198.673 217.838 198.665 215.271 198.652C211.687 198.635 208.103 198.637 204.518 198.644C203.465 198.634 202.413 198.625 201.328 198.616C194.266 198.656 188.352 199.353 182.625 203.875C179.65 207.765 178.794 210.637 179.125 215.5C179.73 219.687 180.816 222.074 184 225C189.581 228.675 194.801 228.425 201.25 228.406C202.34 228.417 203.431 228.428 204.554 228.439C208.036 228.473 211.518 228.489 215 228.5C238.159 228.575 258.826 228.825 277 245C277 245.66 277 246.32 277 247C278.485 247.495 278.485 247.495 280 248C293.537 263.59 295.541 282.756 295.281 302.541C295.25 304.961 295.24 307.379 295.234 309.799C295.13 331.352 295.13 331.352 292.062 338.563C291.554 339.802 291.554 339.802 291.035 341.066C290 343 290 343 288 344C287.67 344.99 287.34 345.98 287 347C286.34 347 285.68 347 285 347C285 347.66 285 348.32 285 349C284.34 349 283.68 349 283 349C283 349.66 283 350.32 283 351C278.647 355 278.647 355 275 355C275 355.66 275 356.32 275 357C261.773 361.849 251.002 362.881 238 357C236.298 356.258 236.298 356.258 234.562 355.5C231.891 353.936 229.987 352.37 228 350C228 349.34 228 348.68 228 348C227.34 348 226.68 348 226 348C224.598 346.199 224.598 346.199 223.062 343.688C222.558 342.887 222.054 342.087 221.535 341.262C217.343 332.354 216.55 323.659 216.602 313.922C216.599 312.711 216.596 311.5 216.593 310.253C216.591 307.711 216.596 305.17 216.609 302.629C216.625 298.747 216.609 294.866 216.59 290.984C216.592 288.505 216.596 286.026 216.602 283.547C216.595 282.393 216.589 281.238 216.583 280.049C216.644 273.075 217.107 267.833 221.418 262.121C224.576 259.883 228.225 259.781 232 260C236.107 262.016 238.363 263.749 240 268C240.252 270.719 240.252 270.719 240.255 273.867C240.262 275.048 240.269 276.23 240.276 277.447C240.275 278.72 240.274 279.993 240.273 281.305C240.289 283.309 240.304 285.314 240.32 287.318C240.358 292.256 240.375 297.194 240.381 302.132C240.385 304.905 240.4 307.676 240.425 310.449C240.449 313.057 240.456 315.666 240.446 318.275C240.511 326.943 240.511 326.943 245 334C248.555 337.306 251.667 337.793 256.398 338.121C260.544 337.928 263.889 336.771 267 334C271.167 328.109 271.591 323.532 271.531 316.422C271.535 315.415 271.539 314.407 271.543 313.37C271.546 311.245 271.538 309.12 271.521 306.996C271.5 303.774 271.521 300.554 271.547 297.332C271.544 295.258 271.539 293.184 271.531 291.109C271.539 290.16 271.547 289.211 271.556 288.233C271.405 277.253 267.92 268.93 260.281 261.094C247.011 248.914 227.829 251.763 211.181 252.137C187.289 252.631 187.289 252.631 178 248C176.891 247.461 175.783 246.922 174.641 246.367C173.852 245.875 173.063 245.382 172.25 244.875C171.43 244.377 170.61 243.88 169.766 243.367C168.892 242.69 168.892 242.69 168 242C168 241.34 168 240.68 168 240C167.01 239.67 166.02 239.34 165 239C160.83 233.996 158.7 229.253 157 223C156.773 222.175 156.546 221.35 156.312 220.5C154.91 209.282 157.679 200.677 163.402 191.031C165.113 188.857 166.454 188.012 169 187C169 186.34 169 185.68 169 185C170.434 183.816 170.434 183.816 172.437 182.563C173.076 182.151 173.714 181.74 174.371 181.316C182.771 177.11 190.355 176.558 199.683 176.58Z" fill="#0C4C7A"/>
<path d="M302 414C307.006 421.22 308.407 432.397 309 441C303.923 444.843 299.954 446.505 293.59 446.809C290.841 447.012 288.359 447.587 285.688 448.25C282.539 448.887 281.163 449.044 278 448.187C274.931 444.831 274.677 441.4 274 437C273.792 436.018 273.585 435.035 273.371 434.023C272.086 427.639 271.862 423.175 274 417C279.198 415.621 284.434 414.4 289.688 413.25C290.949 412.966 292.211 412.683 293.512 412.391C297.19 411.979 298.865 412.079 302 414Z" fill="#0C4D7A"/>
<path d="M346 394C347.773 395.801 347.773 395.801 349.375 398.313C349.96 399.221 350.545 400.13 351.148 401.066C351.759 402.034 352.37 403.003 353 404C353.673 404.958 354.346 405.916 355.039 406.902C355.686 407.842 356.333 408.782 357 409.75C357.598 410.611 358.196 411.472 358.812 412.359C360.358 415.795 360.215 417.45 359 421C355.254 424.882 350.39 426.985 345.562 429.25C344.825 429.614 344.087 429.977 343.326 430.352C339.122 432.34 335.747 433.755 331 433C327.811 430.891 326.861 427.654 325.5 424.188C324.181 420.876 322.876 417.769 321.187 414.625C319.739 411.423 319.396 409.47 320 406C323.858 402.364 328.3 400.092 333 397.75C333.699 397.386 334.397 397.023 335.117 396.648C342.145 393.121 342.145 393.121 346 394Z" fill="#0C4D7A"/>
<path d="M179.262 78.1211C184.387 80.7125 185.991 85.8441 188.188 90.8125C188.556 91.6072 188.924 92.4019 189.303 93.2207C192.948 101.396 192.948 101.396 192 106C188.41 109.779 183.614 111.984 179 114.312C178.301 114.684 177.603 115.056 176.883 115.439C173.856 116.973 171.674 117.989 168.25 118.043C163.505 115.844 161.132 110.792 158.438 106.5C157.859 105.582 157.28 104.664 156.684 103.719C155.85 102.373 155.85 102.373 155 101C154.12 99.747 154.12 99.747 153.223 98.4687C152 96 152 96 152.086 93.3672C154.586 86.8937 163.873 83.9379 169.813 81.0625C170.781 80.5842 170.781 80.5842 171.77 80.0962C174.34 78.8987 176.395 77.9676 179.262 78.1211Z" fill="#0C4C7A"/>
<path d="M235.668 65.177C237.432 67.5917 237.629 69.4756 237.984 72.4375C238.18 74.0269 238.18 74.0269 238.379 75.6484C238.501 76.7544 238.624 77.8604 238.75 79C238.888 80.106 239.026 81.212 239.168 82.3515C240.139 90.5823 240.139 90.5823 239 94C235.374 96.4174 231.959 96.9199 227.75 97.625C226.642 97.8261 226.642 97.8261 225.512 98.0312C220.979 98.8147 216.61 99.4014 212 99C209.338 96.9251 208.461 95.0171 207.613 91.7968C207.397 90.9809 207.181 90.1649 206.959 89.3242C206.639 88.0499 206.639 88.0499 206.312 86.75C206.088 85.9159 205.863 85.0819 205.631 84.2226C204.37 79.339 203.748 75.0405 204 70C208.517 67.4882 212.822 66.1931 217.875 65.3125C218.544 65.1829 219.213 65.0534 219.902 64.9199C232.144 62.6909 232.144 62.6909 235.668 65.177Z" fill="#0C4C7A"/>
</svg>
